# xmcd
#
# Track frame offsets: 
#        150
#        21004
#        38578
#        61734
#        74441
#        92723
#        112185
#
# Disc length: 1685 seconds
#
# Revision: 0
# Processed by: cddbd v1.5.1PL2 Copyright (c) Steve Scherf et al.
# Submitted via: ExactAudioCopy v0.95b4
#
DISCID=56069307
DTITLE=Stacey Bowman - Vintage Blue
DYEAR=2005
DGENRE=Bluegrass
TTITLE0=Buckets of Rain
TTITLE1=Sweet Heaven's Child
TTITLE2=It's A Hard Raid Gonna Fall
TTITLE3=Sweet Little Jesus Boy
TTITLE4=Heaven
TTITLE5=We Always Come Home
TTITLE6=Big Love
EXTD=
EXTT0=
EXTT1=
EXTT2=
EXTT3=
EXTT4=
EXTT5=
EXTT6=
PLAYORDER=
